<?xml version="1.0" standalone="no"?>
<!DOCTYPE svg PUBLIC "-//W3C//DTD SVG 20010904//EN"
 "http://www.w3.org/TR/2001/REC-SVG-20010904/DTD/svg10.dtd">
<svg version="1.0" xmlns="http://www.w3.org/2000/svg"
 width="563.000000pt" height="563.000000pt" viewBox="0 0 563.000000 563.000000"
 preserveAspectRatio="xMidYMid meet">
<metadata>
Created by potrace 1.11, written by Peter Selinger 2001-2013
</metadata>
<g transform="translate(0.000000,563.000000) scale(0.100000,-0.100000)"
fill="#000000" stroke="none">
<path d="M2687 5623 c-2 -2 -30 -6 -63 -9 -133 -12 -215 -21 -254 -29 -14 -3
-38 -8 -55 -10 -16 -3 -40 -7 -52 -10 -58 -13 -70 -16 -95 -20 -15 -3 -38 -9
-52 -15 -15 -5 -26 -8 -26 -5 0 2 -16 -3 -35 -11 -19 -8 -35 -11 -35 -8 0 4
-7 1 -15 -6 -8 -7 -15 -10 -15 -6 0 3 -17 -1 -37 -10 -21 -9 -45 -17 -53 -19
-8 -2 -16 -4 -17 -5 -2 -2 -7 -4 -13 -5 -5 -1 -12 -4 -15 -5 -3 -1 -8 -3 -12
-4 -5 -1 -18 -7 -30 -14 -13 -7 -23 -10 -23 -7 0 3 -10 0 -22 -7 -13 -7 -25
-13 -28 -13 -10 -3 -57 -24 -135 -60 -44 -21 -82 -37 -84 -35 -2 1 -8 -5 -13
-14 -5 -9 -13 -14 -19 -11 -5 4 -9 1 -9 -5 0 -6 -4 -8 -10 -5 -5 3 -10 1 -10
-5 0 -6 -4 -8 -10 -5 -5 3 -10 2 -10 -2 0 -5 -17 -17 -37 -28 -51 -26 -186
-116 -195 -129 -4 -6 -8 -7 -8 -2 0 6 -7 1 -15 -10 -8 -10 -15 -16 -15 -11 0
4 -8 -1 -19 -10 -20 -20 -65 -57 -106 -88 -14 -11 -37 -30 -50 -43 -14 -13
-25 -21 -25 -18 0 3 -56 -51 -125 -119 -69 -68 -125 -128 -125 -132 0 -5 -13
-19 -30 -33 -16 -14 -30 -30 -30 -36 0 -6 -11 -20 -25 -30 -14 -10 -25 -23
-25 -28 0 -5 -10 -17 -22 -27 -11 -11 -17 -19 -12 -19 5 0 -2 -7 -14 -16 -12
-8 -20 -19 -18 -23 3 -4 -6 -19 -20 -34 -13 -14 -24 -30 -24 -35 0 -6 -7 -13
-16 -16 -8 -3 -12 -10 -9 -16 3 -6 -1 -13 -9 -16 -9 -3 -16 -14 -16 -24 0 -9
-9 -25 -20 -35 -11 -10 -20 -22 -20 -27 0 -5 -12 -27 -27 -51 -15 -23 -26 -45
-25 -49 1 -5 -3 -8 -9 -8 -5 0 -7 -4 -4 -10 3 -5 1 -10 -5 -10 -6 0 -9 -4 -6
-9 4 -5 3 -11 -1 -13 -6 -2 -53 -87 -59 -108 -13 -41 -18 -50 -26 -50 -5 0 -7
-4 -3 -9 3 -5 1 -12 -5 -16 -6 -4 -8 -11 -5 -16 4 -5 1 -9 -4 -9 -6 0 -10 -3
-9 -7 1 -5 -4 -21 -10 -36 -7 -16 -12 -35 -12 -43 0 -8 -5 -14 -10 -14 -6 0
-9 -3 -9 -7 1 -5 0 -11 -1 -15 -1 -5 -4 -12 -5 -18 -1 -5 -4 -12 -5 -15 -1 -3
-4 -9 -5 -15 -1 -5 -4 -12 -5 -15 -1 -3 -4 -9 -5 -15 -1 -5 -4 -12 -5 -15 -1
-3 -4 -9 -5 -15 -1 -5 -3 -11 -5 -12 -1 -2 -3 -11 -6 -20 -2 -10 -6 -26 -8
-35 -3 -10 -5 -18 -6 -18 -1 0 -3 -7 -5 -15 -4 -16 -12 -48 -20 -80 -3 -11 -7
-29 -10 -40 -5 -19 -7 -30 -20 -90 -19 -87 -30 -165 -40 -265 -3 -33 -8 -82
-11 -110 -12 -105 -5 -433 11 -510 2 -11 7 -42 10 -68 3 -26 10 -71 16 -100 5
-29 12 -63 14 -77 10 -54 55 -219 83 -305 99 -299 269 -612 469 -865 99 -125
343 -366 463 -457 52 -40 101 -78 108 -84 31 -26 235 -150 322 -196 273 -145
603 -251 920 -297 190 -27 616 -28 757 -2 10 2 38 7 63 10 117 16 242 44 370
83 579 175 1076 519 1441 998 236 310 418 699 499 1070 28 128 29 132 35 175
3 20 7 46 10 58 13 68 20 211 20 397 0 218 -7 325 -30 445 -3 14 -7 43 -11 65
-9 64 -53 242 -86 345 -221 693 -703 1272 -1358 1627 -216 118 -535 233 -755
272 -33 6 -71 13 -85 16 -40 8 -71 13 -130 20 -30 3 -73 9 -95 12 -46 6 -383
12 -388 6z m348 -637 c40 -6 105 -18 115 -21 3 -1 24 -5 47 -9 49 -9 177 -54
248 -87 51 -23 176 -96 185 -108 3 -3 21 -18 40 -33 77 -58 175 -164 236 -253
54 -81 130 -254 149 -343 3 -12 7 -32 10 -44 14 -58 19 -122 20 -233 0 -138
-8 -221 -30 -325 -3 -14 -7 -36 -10 -49 -5 -28 -42 -146 -55 -176 -97 -225
-210 -377 -380 -509 -65 -51 -182 -121 -227 -137 -39 -13 -43 -29 -8 -29 32 0
21 2 125 -26 323 -86 555 -260 674 -505 93 -193 110 -485 42 -736 -102 -383
-423 -668 -808 -721 -71 -9 -377 -9 -458 1 -250 31 -425 101 -540 217 -61 61
-78 86 -113 170 -49 116 -41 259 20 372 33 60 111 139 173 172 203 111 472 32
582 -170 69 -127 73 -255 13 -396 -6 -16 -1 -17 47 -12 74 8 194 48 248 82
120 76 194 195 236 377 4 17 8 93 10 170 4 157 -8 232 -57 351 -59 141 -171
258 -324 336 -95 48 -308 108 -319 89 -2 -3 -2 -49 0 -102 4 -133 31 -230 86
-310 18 -26 2 -48 -55 -74 -66 -30 -118 -39 -227 -38 -142 1 -206 42 -239 149
-25 83 -26 114 -21 654 4 349 -11 502 -60 644 -21 62 -72 160 -96 184 -8 7
-14 19 -14 26 0 15 57 90 93 123 23 22 137 84 167 92 71 19 157 29 220 27 146
-7 226 -67 265 -200 24 -81 24 -262 1 -396 -3 -14 -7 -43 -11 -65 -5 -35 -29
-170 -41 -230 -2 -11 -9 -47 -14 -80 -5 -33 -12 -69 -14 -80 -2 -11 -7 -40
-11 -65 l-6 -45 38 40 c153 157 329 414 421 615 84 182 118 325 120 501 1 111
-3 150 -23 228 -24 91 -85 232 -122 279 -160 206 -349 302 -598 303 -118 0
-205 -20 -315 -75 -104 -51 -176 -103 -268 -193 -122 -121 -212 -249 -265
-380 -29 -72 -32 -87 -31 -188 1 -111 14 -176 55 -273 28 -64 10 -89 -121
-176 -132 -88 -264 -115 -356 -72 -134 63 -237 276 -235 486 1 82 4 99 27 210
56 260 246 547 490 739 218 172 544 298 844 327 36 4 66 8 68 9 6 5 319 -3
357 -9z"/>
<path d="M2628 3546 c-55 -15 -98 -41 -98 -60 0 -7 11 -39 25 -70 29 -65 60
-181 70 -256 4 -29 9 -62 13 -74 3 -12 6 -219 7 -461 1 -242 2 -454 3 -472 3
-44 22 -59 80 -62 l50 -1 -15 57 c-10 37 -16 106 -17 188 -1 119 9 289 18 304
2 3 7 29 10 56 4 28 9 57 11 65 2 8 6 33 10 55 3 22 7 47 10 55 7 25 54 306
62 372 11 97 8 231 -7 267 -7 17 -21 36 -31 41 -25 14 -145 11 -201 -4z"/>
<path d="M2665 1450 c-96 -21 -161 -97 -169 -197 -12 -166 151 -284 297 -214
120 58 157 219 76 332 -41 58 -134 94 -204 79z"/>
</g>
</svg>
